# xmcd CD database file
#
# Track frame offsets:
#	150
#	17647
#	36333
#	54899
#	69779
#	89737
#	108991
#	123683
#	144369
#	163830
#
# Disc length: 2466 seconds
#
# Revision: 0
# Processed by: cddbd v1.5.2PL0 Copyright (c) Steve Scherf et al.
# Submitted via: CDex 1.51
#
DISCID=8409a00a
DTITLE=SMILIN' BOBBY - HIDDEN CHARMS - Chicago Blues Session Volume 73-Big Legged Woman
DYEAR=2009
DGENRE=Blues
TTITLE0=I Play For Keeps
TTITLE1=I Didn't Know
TTITLE2=Cold, Cold Feeling
TTITLE3=Little By Little
TTITLE4=Big Legend Woman 
TTITLE5=I Got To Leave This Woman
TTITLE6=The Bobby Strut
TTITLE7=Thay Call Me A Dog(Mind Your Own Busines)
TTITLE8=You Don't Love Me
TTITLE9=You Are The One
EXTD=YEAR: 2009
EXTT0=
EXTT1=
EXTT2=
EXTT3=
EXTT4=
EXTT5=
EXTT6=
EXTT7=
EXTT8=
EXTT9=
PLAYORDER=
